<svg version="1.1" xmlns="http://www.w3.org/2000/svg" xmlns:xlink="http://www.w3.org/1999/xlink" width="53.22222" height="40.55816" viewBox="0,0,53.22222,40.55816"><g transform="translate(-212.77778,-159.66406)"><g data-paper-data="{&quot;isPaintingLayer&quot;:true}" fill-rule="nonzero" stroke="#000000" stroke-width="2" stroke-linejoin="miter" stroke-miterlimit="10" stroke-dasharray="" stroke-dashoffset="0" style="mix-blend-mode: normal"><path d="M213.91928,192.92557c0,0 -0.1415,-0.38688 -0.1415,-2.26397c0,-4.46108 0,-22.9337 0,-28.44107c0,-0.98604 1.13198,-1.13198 1.13198,-1.13198c0,0 0.06386,-0.42449 1.41498,-0.42449c8.89574,0 42.49916,0 46.97729,0c0.95513,0 0.99048,0 0.99048,0c0,0 0.70749,0.62485 0.70749,1.69797c0,5.76115 0,24.44243 0,28.72406c0,1.69699 -0.1415,2.26397 -0.1415,2.26397c0,0 -0.55809,1.13198 -1.55648,1.13198c-7.93535,0 -43.54439,0 -47.96777,0c-0.88159,0 -1.41498,-1.55648 -1.41498,-1.55648z" fill="#00bbff" stroke-linecap="butt"/><path d="M238.09182,194.69429l-9.05586,4.52793h21.64917l-6.22591,-4.24494" fill="none" stroke-linecap="round"/></g></g></svg>