<svg version="1.1" xmlns="http://www.w3.org/2000/svg" xmlns:xlink="http://www.w3.org/1999/xlink" width="89.55556" height="67.90853" viewBox="0,0,89.55556,67.90853"><g transform="translate(-195.22222,-146.04573)"><g data-paper-data="{&quot;isPaintingLayer&quot;:true}" fill-rule="nonzero" stroke="#000000" stroke-width="2" stroke-linejoin="miter" stroke-miterlimit="10" stroke-dasharray="" stroke-dashoffset="0" style="mix-blend-mode: normal"><path d="M196.46409,202.19122c0,0 -0.24187,-0.66131 -0.24187,-3.86986c0,-7.62545 0,-39.20121 0,-48.6151c0,-1.68547 1.93493,-1.93493 1.93493,-1.93493c0,0 0.10916,-0.7256 2.41866,-0.7256c15.20574,0 72.64499,0 80.29957,0c1.63263,0 1.69306,0 1.69306,0c0,0 1.20933,1.06807 1.20933,2.90239c0,9.8477 0,41.78013 0,49.09883c0,2.90071 -0.24187,3.86986 -0.24187,3.86986c0,0 -0.95396,1.93493 -2.66053,1.93493c-13.56411,0 -74.43163,0 -81.99263,0c-1.50692,0 -2.41866,-2.66053 -2.41866,-2.66053z" fill="#00bbff" stroke-linecap="butt"/><path d="M237.78289,205.21455l-15.47944,7.73972h37.00552l-10.64211,-7.25599" fill="none" stroke-linecap="round"/></g></g></svg>