<svg version="1.1" xmlns="http://www.w3.org/2000/svg" xmlns:xlink="http://www.w3.org/1999/xlink" width="42.22222" height="32.27778" viewBox="0,0,42.22222,32.27778"><g transform="translate(-218.88889,-165.72222)"><g data-paper-data="{&quot;isPaintingLayer&quot;:true}" fill-rule="nonzero" stroke="#000000" stroke-width="2" stroke-linejoin="miter" stroke-miterlimit="10" stroke-dasharray="" stroke-dashoffset="0" style="mix-blend-mode: normal"><path d="M220,192.05556c0,0 -0.11111,-0.3038 -0.11111,-1.77778c0,-3.50306 0,-18.00868 0,-22.33333c0,-0.77429 0.88889,-0.88889 0.88889,-0.88889c0,0 0.05015,-0.33333 1.11111,-0.33333c6.98538,0 33.37244,0 36.88889,0c0.75001,0 0.77778,0 0.77778,0c0,0 0.55556,0.49066 0.55556,1.33333c0,4.52394 0,19.19341 0,22.55556c0,1.33256 -0.11111,1.77778 -0.11111,1.77778c0,0 -0.43824,0.88889 -1.22222,0.88889c-6.23123,0 -34.19321,0 -37.66667,0c-0.69226,0 -1.11111,-1.22222 -1.11111,-1.22222z" fill="#00bbff" stroke-linecap="butt"/><path d="M238.98148,193.44444l-7.11111,3.55556h17l-4.88889,-3.33333" fill="none" stroke-linecap="round"/></g></g></svg>